<svg xmlns="http://www.w3.org/2000/svg" xmlns:xlink="http://www.w3.org/1999/xlink" width="500" zoomAndPan="magnify" viewBox="0 0 375 374.999991" height="500" preserveAspectRatio="xMidYMid meet" version="1.0"><defs><clipPath id="a16d617f04"><path d="M 242 210 L 375 210 L 375 342.328125 L 242 342.328125 Z M 242 210 " clip-rule="nonzero"/></clipPath><clipPath id="1cc4324da8"><path d="M 136 32.578125 L 248 32.578125 L 248 66 L 136 66 Z M 136 32.578125 " clip-rule="nonzero"/></clipPath><clipPath id="424549be7c"><path d="M 13 330 L 375 330 L 375 342.328125 L 13 342.328125 Z M 13 330 " clip-rule="nonzero"/></clipPath><clipPath id="4baf071488"><path d="M 44 293 L 92 293 L 92 342.328125 L 44 342.328125 Z M 44 293 " clip-rule="nonzero"/></clipPath></defs><g clip-path="url(#a16d617f04)"><path fill="#c21b2b" d="M 308.984375 342.402344 C 272.582031 342.402344 242.964844 312.785156 242.964844 276.378906 C 242.964844 239.980469 272.582031 210.359375 308.984375 210.359375 C 345.386719 210.359375 375 239.980469 375 276.378906 C 375 312.785156 345.386719 342.402344 308.984375 342.402344 Z M 308.984375 221.921875 C 278.953125 221.921875 254.523438 246.351562 254.523438 276.382812 C 254.523438 306.414062 278.953125 330.84375 308.984375 330.84375 C 339.011719 330.84375 363.441406 306.414062 363.441406 276.382812 C 363.441406 246.347656 339.011719 221.921875 308.984375 221.921875 Z M 308.984375 221.921875 " fill-opacity="1" fill-rule="nonzero"/></g><path fill="#c21b2b" d="M 308.984375 308.84375 C 291.082031 308.84375 276.519531 294.285156 276.519531 276.378906 C 276.519531 258.484375 291.082031 243.921875 308.984375 243.921875 C 326.882812 243.921875 341.441406 258.484375 341.441406 276.378906 C 341.441406 294.285156 326.882812 308.84375 308.984375 308.84375 Z M 308.984375 255.480469 C 297.457031 255.480469 288.078125 264.855469 288.078125 276.382812 C 288.078125 287.910156 297.457031 297.285156 308.984375 297.285156 C 320.507812 297.285156 329.886719 287.910156 329.886719 276.382812 C 329.882812 264.855469 320.507812 255.480469 308.984375 255.480469 Z M 308.984375 255.480469 " fill-opacity="1" fill-rule="nonzero"/><path fill="#c21b2b" d="M 253.449219 305.539062 L 31.824219 305.539062 C 14.273438 305.539062 0 291.265625 0 273.722656 L 0 140.886719 C 0 119.324219 17.546875 101.777344 39.109375 101.777344 L 318.839844 101.777344 C 340.402344 101.777344 357.941406 119.324219 357.941406 140.886719 L 357.941406 234.429688 C 357.941406 236.78125 356.515625 238.898438 354.335938 239.785156 C 352.164062 240.667969 349.65625 240.148438 348.015625 238.453125 C 336.070312 226.164062 319.398438 220.277344 302.277344 222.320312 C 277.132812 225.320312 256.683594 246.667969 254.695312 271.980469 C 254 280.851562 255.371094 289.445312 258.773438 297.515625 C 259.523438 299.300781 259.332031 301.347656 258.265625 302.957031 C 257.191406 304.570312 255.386719 305.539062 253.449219 305.539062 Z M 39.109375 113.335938 C 23.917969 113.335938 11.558594 125.699219 11.558594 140.886719 L 11.558594 273.722656 C 11.558594 284.890625 20.648438 293.984375 31.824219 293.984375 L 245.332031 293.984375 C 243.285156 286.597656 242.558594 278.921875 243.175781 271.074219 C 245.621094 239.875 269.898438 214.542969 300.910156 210.847656 C 317.242188 208.910156 333.25 212.914062 346.382812 221.992188 L 346.382812 140.886719 C 346.382812 125.695312 334.027344 113.335938 318.839844 113.335938 Z M 39.109375 113.335938 " fill-opacity="1" fill-rule="nonzero"/><path fill="#c21b2b" d="M 271.066406 113.335938 C 267.875 113.335938 265.285156 110.75 265.285156 107.558594 L 265.285156 87.375 L 86.695312 87.375 L 62.425781 111.644531 C 60.167969 113.902344 56.511719 113.902344 54.253906 111.644531 C 51.996094 109.386719 51.996094 105.730469 54.253906 103.472656 L 80.214844 77.511719 C 81.300781 76.429688 82.769531 75.820312 84.300781 75.820312 L 271.066406 75.820312 C 274.253906 75.820312 276.84375 78.40625 276.84375 81.597656 L 276.84375 107.558594 C 276.84375 110.75 274.253906 113.335938 271.066406 113.335938 Z M 271.066406 113.335938 " fill-opacity="1" fill-rule="nonzero"/><path fill="#c21b2b" d="M 232.472656 87.375 L 151.992188 87.375 C 148.804688 87.375 146.214844 84.789062 146.214844 81.597656 L 146.214844 59.710938 C 146.214844 56.519531 148.804688 53.933594 151.992188 53.933594 L 232.472656 53.933594 C 235.664062 53.933594 238.253906 56.519531 238.253906 59.710938 L 238.253906 81.597656 C 238.253906 84.789062 235.664062 87.375 232.472656 87.375 Z M 157.773438 75.816406 L 226.695312 75.816406 L 226.695312 65.492188 L 157.773438 65.492188 Z M 157.773438 75.816406 " fill-opacity="1" fill-rule="nonzero"/><g clip-path="url(#1cc4324da8)"><path fill="#c21b2b" d="M 236.941406 65.488281 L 147.523438 65.488281 C 141.441406 65.488281 136.488281 60.542969 136.488281 54.457031 L 136.488281 43.632812 C 136.488281 37.550781 141.441406 32.597656 147.523438 32.597656 L 236.941406 32.597656 C 243.027344 32.597656 247.976562 37.550781 247.976562 43.632812 L 247.976562 54.457031 C 247.976562 60.542969 243.027344 65.488281 236.941406 65.488281 Z M 147.523438 44.15625 L 148.046875 54.457031 L 236.941406 53.933594 L 236.449219 44.15625 Z M 147.523438 44.15625 " fill-opacity="1" fill-rule="nonzero"/></g><g clip-path="url(#424549be7c)"><path fill="#c21b2b" d="M 369.222656 342.402344 L 19.121094 342.402344 C 15.929688 342.402344 13.339844 339.8125 13.339844 336.621094 C 13.339844 333.429688 15.929688 330.84375 19.121094 330.84375 L 369.222656 330.84375 C 372.410156 330.84375 375 333.429688 375 336.621094 C 375 339.8125 372.410156 342.402344 369.222656 342.402344 Z M 369.222656 342.402344 " fill-opacity="1" fill-rule="nonzero"/></g><g clip-path="url(#4baf071488)"><path fill="#c21b2b" d="M 85.503906 342.402344 L 50.234375 342.402344 C 47.042969 342.402344 44.453125 339.8125 44.453125 336.621094 L 44.453125 299.761719 C 44.453125 296.570312 47.042969 293.984375 50.234375 293.984375 L 85.503906 293.984375 C 88.691406 293.984375 91.28125 296.570312 91.28125 299.761719 L 91.28125 336.621094 C 91.28125 339.8125 88.691406 342.402344 85.503906 342.402344 Z M 56.011719 330.84375 L 79.722656 330.84375 L 79.722656 305.539062 L 56.011719 305.539062 Z M 56.011719 330.84375 " fill-opacity="1" fill-rule="nonzero"/></g><path fill="#c21b2b" d="M 352.164062 152.605469 L 5.777344 152.605469 C 2.589844 152.605469 0 150.019531 0 146.828125 C 0 143.636719 2.589844 141.046875 5.777344 141.046875 L 352.164062 141.046875 C 355.351562 141.046875 357.941406 143.636719 357.941406 146.828125 C 357.941406 150.019531 355.351562 152.605469 352.164062 152.605469 Z M 352.164062 152.605469 " fill-opacity="1" fill-rule="nonzero"/><path fill="#c21b2b" d="M 139.929688 284.789062 L 45.328125 284.789062 C 42.140625 284.789062 39.550781 282.203125 39.550781 279.011719 L 39.550781 173.882812 C 39.550781 170.691406 42.140625 168.105469 45.328125 168.105469 L 139.929688 168.105469 C 143.121094 168.105469 145.710938 170.691406 145.710938 173.882812 L 145.710938 279.011719 C 145.710938 282.203125 143.121094 284.789062 139.929688 284.789062 Z M 51.109375 273.230469 L 134.152344 273.230469 L 134.152344 179.664062 L 51.109375 179.664062 Z M 51.109375 273.230469 " fill-opacity="1" fill-rule="nonzero"/><path fill="#c21b2b" d="M 139.929688 251.203125 L 45.328125 251.203125 C 42.140625 251.203125 39.550781 248.613281 39.550781 245.421875 L 39.550781 207.472656 C 39.550781 204.28125 42.140625 201.691406 45.328125 201.691406 L 139.929688 201.691406 C 143.121094 201.691406 145.710938 204.28125 145.710938 207.472656 L 145.710938 245.421875 C 145.710938 248.613281 143.121094 251.203125 139.929688 251.203125 Z M 51.109375 239.644531 L 134.152344 239.644531 L 134.152344 213.25 L 51.109375 213.25 Z M 51.109375 239.644531 " fill-opacity="1" fill-rule="nonzero"/><path fill="#c21b2b" d="M 198.398438 284.789062 L 161.355469 284.789062 C 158.164062 284.789062 155.574219 282.203125 155.574219 279.011719 C 155.574219 275.820312 158.164062 273.234375 161.355469 273.234375 L 196.003906 273.234375 L 237.160156 232.074219 C 238.246094 230.992188 239.714844 230.382812 241.246094 230.382812 L 262.671875 230.382812 C 265.863281 230.382812 268.449219 232.972656 268.449219 236.160156 C 268.449219 239.351562 265.863281 241.941406 262.671875 241.941406 L 243.640625 241.941406 L 202.484375 283.097656 C 201.398438 284.179688 199.925781 284.789062 198.398438 284.789062 Z M 198.398438 284.789062 " fill-opacity="1" fill-rule="nonzero"/><path fill="#c21b2b" d="M 179.9375 239.527344 C 178.460938 239.527344 176.980469 238.964844 175.851562 237.835938 C 173.59375 235.578125 173.59375 231.917969 175.851562 229.660156 L 191.777344 213.734375 L 178.96875 213.734375 C 176.632812 213.734375 174.527344 212.328125 173.628906 210.167969 C 172.734375 208.007812 173.234375 205.523438 174.882812 203.871094 L 201.644531 177.113281 C 203.902344 174.855469 207.558594 174.855469 209.816406 177.113281 C 212.074219 179.371094 212.074219 183.027344 209.816406 185.285156 L 192.921875 202.175781 L 205.730469 202.175781 C 208.066406 202.175781 210.171875 203.585938 211.066406 205.746094 C 211.964844 207.902344 211.46875 210.390625 209.816406 212.042969 L 184.023438 237.835938 C 182.894531 238.964844 181.417969 239.527344 179.9375 239.527344 Z M 179.9375 239.527344 " fill-opacity="1" fill-rule="nonzero"/></svg>