<svg xmlns="http://www.w3.org/2000/svg" xmlns:xlink="http://www.w3.org/1999/xlink" width="500" zoomAndPan="magnify" viewBox="0 0 375 374.999991" height="500" preserveAspectRatio="xMidYMid meet" version="1.0"><defs><clipPath id="0f2f19af37"><path d="M 0 50.859375 L 375 50.859375 L 375 323.859375 L 0 323.859375 Z M 0 50.859375 " clip-rule="nonzero"/></clipPath></defs><g clip-path="url(#0f2f19af37)"><path fill="#c21b2b" d="M 46.957031 50.859375 L 46.957031 89.898438 L 62.570312 89.898438 L 62.570312 183.597656 L 39.148438 183.597656 L 39.148438 167.980469 L 0.105469 167.980469 L 0.105469 269.484375 L 39.148438 269.484375 L 39.148438 253.867188 L 62.570312 253.867188 L 62.570312 285.101562 L 156.269531 285.101562 L 156.269531 284.535156 C 158.832031 288.523438 161.828125 292.984375 165.449219 297.683594 C 170.191406 303.835938 175.675781 310.074219 181.8125 315.066406 C 187.949219 320.058594 194.910156 324.140625 203.117188 324.140625 L 328.042969 324.140625 C 353.777344 324.140625 374.894531 303.023438 374.894531 277.292969 L 374.894531 152.363281 C 374.894531 126.632812 353.777344 105.515625 328.042969 105.515625 L 203.117188 105.515625 C 194.910156 105.515625 187.949219 109.597656 181.8125 114.589844 C 175.675781 119.582031 170.191406 125.820312 165.449219 131.972656 C 161.828125 136.671875 158.832031 141.132812 156.269531 145.121094 L 156.269531 144.554688 L 132.84375 144.554688 L 132.84375 89.898438 L 148.460938 89.898438 L 148.460938 50.859375 Z M 62.570312 66.476562 L 132.84375 66.476562 L 132.84375 74.285156 L 62.570312 74.285156 Z M 78.1875 89.898438 L 117.226562 89.898438 L 117.226562 214.828125 L 132.84375 214.828125 L 132.84375 160.171875 L 148.460938 160.171875 L 148.460938 269.484375 L 78.1875 269.484375 Z M 210.925781 121.132812 L 320.238281 121.132812 L 320.238281 308.523438 L 210.925781 308.523438 L 210.925781 300.714844 L 312.429688 300.714844 L 312.429688 285.101562 L 210.925781 285.101562 L 210.925781 269.484375 L 312.429688 269.484375 L 312.429688 253.867188 L 210.925781 253.867188 L 210.925781 238.253906 L 312.429688 238.253906 L 312.429688 222.636719 L 210.925781 222.636719 L 210.925781 207.019531 L 312.429688 207.019531 L 312.429688 191.402344 L 210.925781 191.402344 L 210.925781 175.789062 L 312.429688 175.789062 L 312.429688 160.171875 L 210.925781 160.171875 L 210.925781 144.554688 L 312.429688 144.554688 L 312.429688 128.941406 L 210.925781 128.941406 Z M 335.851562 122.246094 C 349.28125 125.738281 359.277344 137.863281 359.277344 152.363281 L 359.277344 277.292969 C 359.277344 291.792969 349.28125 303.917969 335.851562 307.410156 Z M 195.308594 124.089844 L 195.308594 305.566406 C 194.136719 304.832031 192.917969 303.980469 191.664062 302.957031 C 187 299.164062 182.117188 293.695312 177.832031 288.136719 C 169.808594 277.730469 164.796875 268.503906 164.074219 267.195312 L 164.074219 162.460938 C 164.796875 161.152344 169.808594 151.925781 177.832031 141.519531 C 182.117188 135.960938 187 130.492188 191.664062 126.699219 C 192.917969 125.675781 194.136719 124.824219 195.308594 124.089844 Z M 15.722656 183.597656 L 23.53125 183.597656 L 23.53125 253.867188 L 15.722656 253.867188 Z M 39.148438 199.210938 L 62.570312 199.210938 L 62.570312 238.253906 L 39.148438 238.253906 Z M 39.148438 199.210938 " fill-opacity="1" fill-rule="nonzero"/></g></svg>