<svg xmlns="http://www.w3.org/2000/svg" xmlns:xlink="http://www.w3.org/1999/xlink" width="500" zoomAndPan="magnify" viewBox="0 0 375 374.999991" height="500" preserveAspectRatio="xMidYMid meet" version="1.0"><defs><clipPath id="6875910663"><path d="M 139 339 L 226 339 L 226 369.65625 L 139 369.65625 Z M 139 339 " clip-rule="nonzero"/></clipPath><clipPath id="46da7cac4e"><path d="M 292 327 L 320 327 L 320 369.65625 L 292 369.65625 Z M 292 327 " clip-rule="nonzero"/></clipPath><clipPath id="cedc72e4b2"><path d="M 4 5.15625 L 75 5.15625 L 75 27 L 4 27 Z M 4 5.15625 " clip-rule="nonzero"/></clipPath><clipPath id="65c82f98e7"><path d="M 182.210938 171.183594 L 192.789062 171.183594 L 192.789062 181.761719 L 182.210938 181.761719 Z M 182.210938 171.183594 " clip-rule="nonzero"/></clipPath><clipPath id="879e8f35db"><path d="M 187.5 171.183594 C 184.578125 171.183594 182.210938 173.550781 182.210938 176.472656 C 182.210938 179.394531 184.578125 181.761719 187.5 181.761719 C 190.421875 181.761719 192.789062 179.394531 192.789062 176.472656 C 192.789062 173.550781 190.421875 171.183594 187.5 171.183594 Z M 187.5 171.183594 " clip-rule="nonzero"/></clipPath></defs><path fill="#1c313f" d="M 297.859375 144.6875 L 316.59375 144.6875 C 317.253906 144.6875 317.746094 144.074219 317.601562 143.429688 L 317.347656 140.242188 C 317.027344 138.792969 315.734375 137.757812 314.25 137.757812 L 300.203125 137.757812 C 298.71875 137.757812 297.429688 138.792969 297.105469 140.242188 L 296.851562 143.429688 C 296.707031 144.074219 297.199219 144.6875 297.859375 144.6875 " fill-opacity="1" fill-rule="nonzero"/><path fill="#32495e" d="M 146.882812 330.691406 L 174.875 330.691406 L 186.683594 300.644531 C 166.128906 280.078125 126.765625 283.402344 126.765625 283.402344 C 98.480469 282.148438 80.402344 303.71875 104.28125 304.464844 C 122.890625 305.046875 146.882812 330.691406 146.882812 330.691406 " fill-opacity="1" fill-rule="nonzero"/><g clip-path="url(#6875910663)"><path fill="#1c313f" d="M 224.632812 365.082031 C 217.96875 360.949219 209.410156 353.984375 204.945312 343.671875 C 203.730469 340.863281 200.953125 339.0625 197.894531 339.0625 L 139.449219 339.0625 L 139.449219 369.820312 L 223.265625 369.820312 C 225.851562 369.820312 226.828125 366.445312 224.632812 365.082031 " fill-opacity="1" fill-rule="nonzero"/></g><path fill="#254157" d="M 183.117188 235.078125 L 162.449219 245.265625 C 152.925781 249.960938 147.011719 259.476562 147.011719 270.09375 L 147.011719 275.957031 C 150.785156 276.378906 154.792969 277.007812 158.886719 277.933594 L 158.886719 270.09375 C 158.886719 264.03125 162.265625 258.601562 167.703125 255.917969 L 200.519531 239.742188 L 184.328125 235.4375 C 183.902344 235.316406 183.503906 235.195312 183.117188 235.078125 " fill-opacity="1" fill-rule="nonzero"/><path fill="#32495e" d="M 353.746094 213.691406 L 353.746094 181.761719 L 282.902344 181.761719 L 347.71875 210.082031 C 349.90625 211.035156 351.914062 212.253906 353.746094 213.691406 " fill-opacity="1" fill-rule="nonzero"/><path fill="#32495e" d="M 313.949219 152.996094 L 313.949219 147.574219 L 300.503906 147.574219 L 300.503906 152.996094 L 313.949219 152.996094 " fill-opacity="1" fill-rule="nonzero"/><path fill="#1c313f" d="M 361.597656 173.742188 L 360.582031 169.199219 C 358.871094 161.550781 352.078125 156.113281 344.238281 156.113281 L 270.210938 156.113281 C 262.410156 156.113281 255.648438 161.503906 253.898438 169.09375 L 264.535156 173.742188 L 361.597656 173.742188 " fill-opacity="1" fill-rule="nonzero"/><path fill="#c21b2b" d="M 166.492188 182.128906 C 159.84375 201.179688 167.898438 221.292969 184.464844 227.078125 C 185.140625 227.316406 185.828125 227.523438 186.507812 227.714844 L 249.472656 244.457031 C 264.777344 230.644531 285.039062 222.226562 307.226562 222.226562 C 325.859375 222.226562 343.128906 228.164062 357.25 238.242188 C 357.09375 229.058594 352.34375 220.847656 344.507812 217.433594 L 210.527344 158.902344 C 209.878906 158.628906 209.207031 158.363281 208.53125 158.128906 C 191.964844 152.34375 173.136719 163.09375 166.492188 182.128906 " fill-opacity="1" fill-rule="nonzero"/><path fill="#32495e" d="M 374.144531 267.910156 C 360.421875 245.332031 335.589844 230.246094 307.230469 230.246094 C 278.871094 230.246094 254.03125 245.332031 240.3125 267.910156 C 239.46875 269.300781 239.972656 271.121094 241.414062 271.882812 L 245.191406 273.882812 C 246.503906 274.578125 248.136719 274.140625 248.910156 272.871094 C 260.941406 253.257812 282.585938 240.148438 307.230469 240.148438 C 331.878906 240.148438 353.519531 253.257812 365.550781 272.871094 C 366.324219 274.140625 367.957031 274.578125 369.269531 273.882812 L 373.050781 271.882812 C 374.488281 271.121094 374.992188 269.300781 374.144531 267.910156 " fill-opacity="1" fill-rule="nonzero"/><path fill="#1c313f" d="M 283.371094 270.367188 C 281.613281 273.386719 281.195312 277.003906 282.226562 280.34375 L 288.621094 301.066406 L 299.332031 285.351562 L 294.820312 270.722656 L 294.882812 250.609375 L 283.371094 270.367188 " fill-opacity="1" fill-rule="nonzero"/><path fill="#1c313f" d="M 252.636719 282.726562 L 260.90625 304.046875 C 262.171875 307.304688 264.738281 309.882812 267.992188 311.160156 L 288.179688 319.082031 L 282.570312 300.90625 L 268.320312 295.316406 L 252.636719 282.726562 " fill-opacity="1" fill-rule="nonzero"/><path fill="#1c313f" d="M 284.28125 323.710938 L 271.027344 331.367188 L 251.40625 335.78125 L 273.230469 342.609375 C 276.566406 343.652344 280.1875 343.25 283.210938 341.503906 L 301.988281 330.65625 L 284.28125 323.710938 " fill-opacity="1" fill-rule="nonzero"/><g clip-path="url(#46da7cac4e)"><path fill="#1c313f" d="M 300.902344 351.726562 L 292.117188 369.820312 L 311.0625 357.015625 C 313.957031 355.058594 315.902344 351.980469 316.421875 348.523438 L 319.648438 327.078125 L 303.179688 336.589844 L 300.902344 351.726562 " fill-opacity="1" fill-rule="nonzero"/></g><path fill="#1c313f" d="M 327.867188 311.039062 L 325.035156 329.847656 L 335.449219 341.066406 L 344.117188 359.214844 L 345.914062 336.417969 C 346.191406 332.933594 344.996094 329.496094 342.617188 326.933594 L 327.867188 311.039062 " fill-opacity="1" fill-rule="nonzero"/><path fill="#1c313f" d="M 342.070312 292.996094 L 320.445312 294.617188 L 333.382812 308.558594 L 348.648438 307.410156 L 368.242188 311.949219 L 351.539062 296.328125 C 348.988281 293.941406 345.554688 292.730469 342.070312 292.996094 " fill-opacity="1" fill-rule="nonzero"/><path fill="#1c313f" d="M 330.570312 276.105469 L 346.332031 263.613281 L 323.707031 266.933594 C 320.25 267.441406 317.160156 269.371094 315.195312 272.257812 L 302.980469 290.179688 L 321.949219 288.753906 L 330.570312 276.105469 " fill-opacity="1" fill-rule="nonzero"/><path fill="#254157" d="M 303.542969 297.433594 C 296.785156 299.519531 292.996094 306.6875 295.082031 313.445312 C 297.167969 320.203125 304.335938 323.992188 311.09375 321.90625 C 317.851562 319.820312 321.636719 312.652344 319.550781 305.890625 C 317.46875 299.136719 310.296875 295.347656 303.542969 297.433594 " fill-opacity="1" fill-rule="nonzero"/><g clip-path="url(#cedc72e4b2)"><path fill="#1c313f" d="M 13.640625 26.40625 L 65.402344 26.40625 C 70.421875 26.40625 74.492188 22.335938 74.492188 17.3125 L 74.492188 14.273438 C 74.492188 9.253906 70.421875 5.179688 65.402344 5.179688 L 13.640625 5.179688 C 8.617188 5.179688 4.546875 9.253906 4.546875 14.273438 L 4.546875 17.3125 C 4.546875 22.335938 8.617188 26.40625 13.640625 26.40625 " fill-opacity="1" fill-rule="nonzero"/></g><path fill="#c2c6ca" d="M 63.742188 40.585938 C 22.824219 41.570312 9.210938 51.441406 4.730469 57.253906 C 4.667969 57.25 4.609375 57.246094 4.546875 57.246094 C 2.035156 57.246094 0 59.28125 0 61.789062 C 0 64.300781 2.035156 66.335938 4.546875 66.335938 C 7.058594 66.335938 9.09375 64.300781 9.09375 61.789062 C 9.09375 60.832031 8.792969 59.941406 8.285156 59.207031 C 12.273438 54.460938 24.925781 45.53125 63.839844 44.597656 C 70.820312 44.429688 76.5 38.617188 76.5 31.640625 L 76.5 30.316406 C 75.269531 31.371094 73.882812 32.246094 72.382812 32.921875 C 71.761719 37.148438 68.128906 40.480469 63.742188 40.585938 " fill-opacity="1" fill-rule="nonzero"/><path fill="#254157" d="M 82.011719 21.363281 L 99.621094 21.363281 C 101.398438 21.363281 103.011719 22.394531 103.761719 24 L 168.472656 163.074219 C 171.109375 160.097656 174.070312 157.503906 177.277344 155.371094 L 113.785156 18.917969 C 111.289062 13.558594 105.914062 10.128906 100.003906 10.128906 L 81.988281 10.128906 C 82.324219 11.460938 82.519531 12.839844 82.519531 14.273438 L 82.519531 17.3125 C 82.519531 18.710938 82.332031 20.058594 82.011719 21.363281 " fill-opacity="1" fill-rule="nonzero"/><g clip-path="url(#65c82f98e7)"><g clip-path="url(#879e8f35db)"><path fill="#c21b2b" d="M 182.210938 171.183594 L 192.789062 171.183594 L 192.789062 181.761719 L 182.210938 181.761719 Z M 182.210938 171.183594 " fill-opacity="1" fill-rule="nonzero"/></g></g></svg>